<svg xmlns="http://www.w3.org/2000/svg" viewBox="0 0 760 420" font-family="Segoe UI, Arial, sans-serif">
  <rect width="760" height="420" fill="#f6f7f9"/>
  <!-- browser chrome -->
  <rect x="20" y="16" width="720" height="388" rx="10" fill="#ffffff" stroke="#d0d4da"/>
  <rect x="20" y="16" width="720" height="40" rx="10" fill="#eef0f3"/>
  <circle cx="44" cy="36" r="6" fill="#f66"/>
  <circle cx="64" cy="36" r="6" fill="#fc3"/>
  <circle cx="84" cy="36" r="6" fill="#6c6"/>
  <rect x="110" y="26" width="440" height="20" rx="10" fill="#ffffff" stroke="#d0d4da"/>
  <text x="124" y="41" font-size="13" fill="#333">https://smpl-x.is.tue.mpg.de/register.php</text>

  <text x="60" y="92" font-size="20" font-weight="bold" fill="#222">Register</text>

  <text x="60" y="124" font-size="13" fill="#555">Email Address</text>
  <rect x="60" y="132" width="400" height="30" rx="4" fill="#ffffff" stroke="#b9bfc7"/>
  <text x="70" y="152" font-size="13" fill="#888">you@studio.com</text>

  <text x="60" y="190" font-size="13" fill="#555">Password</text>
  <rect x="60" y="198" width="400" height="30" rx="4" fill="#ffffff" stroke="#b9bfc7"/>
  <text x="70" y="218" font-size="13" fill="#888">••••••••</text>

  <rect x="60" y="248" width="16" height="16" rx="3" fill="#2f6fed"/>
  <path d="M63 256 l4 5 l7 -9" stroke="#fff" stroke-width="2.5" fill="none"/>
  <text x="84" y="261" font-size="13" fill="#333">I accept the model license (non-commercial research)</text>

  <rect x="60" y="286" width="120" height="34" rx="6" fill="#2f6fed"/>
  <text x="88" y="308" font-size="14" fill="#ffffff" font-weight="bold">Register</text>

  <!-- callout -->
  <rect x="490" y="120" width="230" height="150" rx="8" fill="#fff8e1" stroke="#e0b400"/>
  <text x="505" y="146" font-size="13" font-weight="bold" fill="#7a6200">This sign-up IS the</text>
  <text x="505" y="164" font-size="13" font-weight="bold" fill="#7a6200">license step.</text>
  <text x="505" y="190" font-size="12" fill="#7a6200">Create an account on each of</text>
  <text x="505" y="207" font-size="12" fill="#7a6200">the 3 official sites using the</text>
  <text x="505" y="224" font-size="12" fill="#7a6200">SAME email + password:</text>
  <text x="505" y="246" font-size="12" fill="#7a6200">smpl · smpl-x · flame</text>
  <text x="505" y="262" font-size="12" fill="#7a6200">(.is.tue.mpg.de)</text>

  <text x="60" y="380" font-size="12" fill="#777">Commercial production use additionally requires a Meshcapade license.</text>
</svg>
